<?xml version="1.0" encoding="utf-8"?>
<!-- Generator: Adobe Illustrator 18.1.1, SVG Export Plug-In . SVG Version: 6.00 Build 0)  -->
<svg version="1.1" id="Layer_1" xmlns="http://www.w3.org/2000/svg" xmlns:xlink="http://www.w3.org/1999/xlink" x="0px" y="0px"
	 viewBox="0 0 631 194" enable-background="new 0 0 631 194" xml:space="preserve">
<g>
	<path fill="#2E3192" d="M485.8,97.4c0.8-0.4,1.2-0.6,1.6-0.8c8.5-2.9,15.4-15.8,10.7-25c-3.6-7.1-9.5-10.5-16.9-12
		c-0.4-1-1.2-1-2-1c-15.8,0-31.6,0.1-47.4-0.1c-3.5,0-2.6,2-2.6,3.8c0,23.3,0,46.6,0,69.8c0,0,0,0,0,0c0,0.4,0,0.8,0,1.2h0
		c-0.7,2.4,0.9,2.3,2.5,2.3c6.8,0,13.6-0.1,20.4,0c2.4,0,3-0.6,3-3.1c-0.2-9.6-0.1-19.3-0.1-28.9c1.3,0.3,2.5,0.8,3.8,0.7
		c8.2-0.4,13.2,4.2,13.3,12.3c0.1,5.8,0.1,11.6,0.2,17.3c0,0.2-0.1,0.5,0,0.5c8.9,1.5,17.8,2.1,26.7-0.3c0.5-3.9,0.7-7.9,0.9-11.8
		c0.2-5.7-0.3-11.6-3.9-16.9C493.2,101.9,489.5,100,485.8,97.4z M437.3,133.8c0.9,0,1.8,0,2.7,0
		C439.1,133.8,438.2,133.8,437.3,133.8z M461.7,89.6c-2.1,0.1-5.1,1.4-6,0.5c-1.7-1.7-0.6-4.7-0.6-7.2c-0.1-3.5,0.1-7-0.1-10.5
		c-0.1-2.8,0.3-4.8,4-3.8c4.3,0.8,9.2,0.8,11.7,6.1C474,81.8,469.5,89.3,461.7,89.6z"/>
	<path fill="#2E3192" d="M306.1,59.5c-0.3-0.7-0.8-0.9-1.6-0.9c-16.7,0-33.3,0.1-50-0.1c-2.9,0-2.6,1.6-2.6,3.5
		c0,23.5,0.1,47-0.1,70.4c0,2.7,0.7,3.4,3.3,3.3c7.2-0.2,14.3-0.2,21.5,0c3.1,0.1,3.4-1.1,3.4-3.7c-0.1-9.5,0-18.9,0-28.4
		c9.3-0.1,18.5-0.1,27.8-0.2c11.5-2.4,19-14.2,16.3-25.4C321.9,68.1,315.7,62.3,306.1,59.5z M287.4,89.6c-1.5-0.1-2.9,0.3-4.3,0.8
		c-1.2,0.4-3.2,0.9-3.1-1.7c-0.1-6-0.2-11.9-0.2-17.9c0-0.9-0.2-2.1,1.3-2.2c2.4,1.2,5,0.4,7.4,0.9c5.6,1.1,8.6,4.8,8.5,10.3
		C296.9,84.1,292.9,90,287.4,89.6z"/>
	<path fill="#2E3192" d="M404.8,90.5c-13.1,0.3-26.3,0.2-39.4,0.2c-0.6-0.4-1-0.8-1.3-1.2c0.3,0.4,0.7,0.8,1.3,1.2
		c-0.1-4.1,0.1-8.3-0.3-12.4c-0.3-3.6,0.6-4.8,4.5-4.7c12.1,0.3,24.2,0.2,36.3,0c1.3,0,3.4,1.5,4-1.2c0-4.2,0-8.5,0-12.7
		c-0.2-2-1.8-1.1-2.7-1.1c-22.4-0.1-44.8-0.1-67.3,0c-0.9,0-2.5-0.8-2.7,1.1c0,24.7,0,49.3,0,74c-0.6,2.2,0.9,2,2.3,2
		c7.6,0,15.3-0.1,22.9,0.1c2.8,0.1,2.8-1.3,2.8-3.3c-0.1-8.5,0.1-16.9-0.1-25.4c-0.1-2.8,0.8-3.9,3.6-3.6c1.6,0.2,3.3,0.1,5,0
		c12.1-0.3,24.2,0.6,36.2-0.5c0.1-2.3,0-4.7,0.2-7C410.5,92,409.1,90.4,404.8,90.5z"/>
	<path fill="#2E3192" d="M136.1,76.4c0-5.8-0.2-11.6-0.3-17.4c-5.9-1-11.8-0.5-17.8-0.4c-3.6,0.1-7.4-1.4-10.9,0.9
		C102.8,72,96.2,83.4,90.4,96.4c-6.1-12.8-11.8-24.7-17.5-36.7c-0.2-0.3-0.5-1-0.7-1c-8.3-0.1-16.6,0-24.9-0.2
		c-2.9-0.1-2.1,1.9-2.1,3.3c0,23.6,0,47.2,0,70.7c-0.1,0.2-0.1,0.4,0,0.6c-0.7,2.1,0.4,2.5,2.3,2.5c7.8-0.1,15.5,0,23.3,0
		c1.5,0,2.7-0.2,2.1-2.2c0-11,0-21.9,0-32.9c0.3,0,0.5,0,0.8,0c5.5,11.2,11,22.5,16.8,34.5c3.2-7,5.6-13.3,8.9-19.1
		c2.7-4.8,4-10.5,7.8-14.7c-0.1,10.6-0.2,21.2-0.3,31.8c0,0.7,0.3,1.3,1,1.4l0,0c0.8,2,2.6,1,3.9,1c6.4,0.1,12.9,0.1,19.3,0
		c1.3,0,3,1,3.9-1c0,0,0,0,0,0c2.2-1.2,1-3.3,1-4.9C136.1,112,136.1,94.2,136.1,76.4z"/>
	<path fill="#2E3192" d="M582.2,121.7c-14-0.1-27.9,0-41.9,0c-0.1-0.3-0.2-0.6-0.3-1c1.8-0.7,1-2.2,1-3.4c0.1-4.6,0-9.1,0.1-13.7
		c11.2,0,22.3,0,33.5,0c11.8,0,11.8,0,11.2-11.8c-0.7-2.5-2.8-1.1-4.1-1.1c-13.9-0.1-27.7-0.1-41.6-0.1c-0.1-0.3-0.2-0.6-0.2-0.9
		c1.7-5.1,1.7-10.1,0-15.2c0-0.3,0-0.5,0-0.8c13.9,0,27.8,0.1,41.7-0.1c1.4,0,3.9,1.7,4.1-1.7c-5.1,0.4-10.3,0.5-15.4,0.5
		c5.1,0,10.3-0.1,15.4-0.5c0-3.9,0-7.8,0.1-11.8c0.2-2.4-1.6-1.6-2.8-1.6c-22.5,0-44.9,0-67.4,0c-1.1,0-3-0.7-2.7,1.7
		c0,24.8,0,49.6,0,74.4c0.4,1.4,1.6,0.9,2.4,0.9c22.6,0,45.3,0,67.9,0c0.8,0,2.1,0.6,2.3-1c0-3.9,0-7.8,0-11.8
		C585.2,120.6,583.4,121.7,582.2,121.7z"/>
	<path fill="#2E3192" d="M240,133.4c0-1.5-0.2-2.9-0.7-4.3c-3.3-11.2-6.1-22.6-9.5-33.8c-3.7-11.9-6.3-24.1-10.7-35.8
		c-0.3-0.7-0.9-0.9-1.6-0.9c-14.9,0-29.8,0-44.7,0c-0.6,0-1.9-0.2-0.8,1.1c-0.3,0.7-0.8,1.4-1,2.2c-6.7,23.5-13.4,47-20,70.5
		c-2.2,2.5-1.3,3.3,1.6,3.3c7.8,0,15.6,0,23.4,0c1.1,0,2-0.2,2.5-1.2c1.2-4,2.4-7.9,3.6-11.9c0.5-0.2,1.1-0.4,1.6-0.6
		c-0.5,0.2-1.1,0.3-1.6,0.6c9-0.1,18.1-0.1,27.1-0.2c1.1,4,2.1,8,3.2,12c0.2,0.3,0.4,0.7,0.6,0.8c8.9,1,17.9,0.4,26.8,0.3
		C241.6,135.6,241.4,134.2,240,133.4z M190,108.4c-1.4,0-3.5,1-4.1-1.4c3.2-10.7,6.4-21.4,9.8-32.8c3.5,11.9,6.9,23.1,10.2,34.3
		C200.6,108.5,195.3,108.6,190,108.4z M186.2,121.6c-0.5,0-1.1,0.1-1.6,0.2C185.1,121.7,185.6,121.6,186.2,121.6s1.1-0.1,1.6-0.1
		C187.3,121.5,186.7,121.5,186.2,121.6z"/>
</g>
</svg>
