<?xml version="1.0" encoding="utf-8"?>
<!-- Generator: Adobe Illustrator 18.1.1, SVG Export Plug-In . SVG Version: 6.00 Build 0)  -->
<svg version="1.1" id="Layer_1" xmlns="http://www.w3.org/2000/svg" xmlns:xlink="http://www.w3.org/1999/xlink" x="0px" y="0px"
	 viewBox="0 0 631 194" enable-background="new 0 0 631 194" xml:space="preserve">
<g>
	<g id="Capa_1">
		<g>
			<path fill="#2B3990" d="M160.3,100.4c0,0.4-0.1,0.5-0.1,0.2c-0.1-0.9-0.8-1.5-1.7-1.5H63.3c-1.3,0-2.1-1.4-1.5-2.5v0L82.5,57
				c1.3-2.4,4.8-2.4,6,0l17,32.5c0.3,0.6,0.9,0.9,1.5,0.9h49.1c1.1,0,1.9-1.1,1.6-2.1c-9.1-31.3-38-54.1-72.2-54.1
				c-34.3,0-75.2,33.6-75.2,75.2c0,41.5,0.2,6,0.6,8.9c0.1,0.9,0.8,1.5,1.7,1.5h95.2c1.3,0,2.1,1.4,1.5,2.5l-20.7,39.5
				c-1.3,2.4-4.8,2.4-6,0l-17-32.5c-0.3-0.6-0.9-0.9-1.5-0.9H14.9c-1.1,0-1.9,1.1-1.6,2.2c9.1,31.3,38,54.1,72.2,54.1
				s75.3-33.7,75.3-75.3c0-3.2,0-5.9,0-8.2C160.6,100.9,160.5,100.6,160.3,100.4z"/>
			<g>
				<g>
					<path fill="#2B3990" d="M205.4,184.4c-4.8,0-9.1-0.4-12.7-1.4c-3.6-0.9-7.1-2.1-10.2-3.4v-15h1.4c3.1,2.7,6.6,4.8,10.5,6.2
						s7.5,2.1,11.1,2.1s2.1-0.1,3.6-0.3c1.5-0.2,2.7-0.5,3.6-0.9c1.1-0.5,2-1.1,2.8-2s1.1-2,1.1-3.4c0-1.4-0.6-2.9-1.9-3.8
						c-1.3-0.9-2.8-1.7-4.4-2.1c-2.1-0.6-4.4-1.1-6.9-1.6c-2.4-0.5-4.7-1.1-6.8-1.9c-4.9-1.7-8.4-4-10.5-7
						c-2.1-2.9-3.2-6.6-3.2-10.9s2.5-10.7,7.5-14.3c5-3.6,11.2-5.5,18.7-5.5s7.5,0.4,11.2,1.1c3.7,0.8,7,1.8,10,3.1v14.4h-1.4
						c-2.3-2-5.2-3.7-8.6-5.1c-3.4-1.4-6.8-2.1-10.4-2.1c-3.6,0-2.6,0.1-3.7,0.3c-1.1,0.2-2.3,0.6-3.4,1.1c-1,0.4-1.8,1.1-2.6,2
						c-0.7,0.9-1.1,1.9-1.1,3c0,1.6,0.6,2.9,1.7,3.8c1.1,0.9,3.3,1.8,6.6,2.6c2.1,0.5,4.1,0.9,6.1,1.4c1.9,0.4,4.1,1.1,6.3,1.9
						c4.4,1.6,7.6,3.7,9.8,6.4c2.1,2.7,3.2,6.2,3.2,10.6c0,6.3-2.4,11.3-7.4,15.1C220.4,182.6,213.8,184.5,205.4,184.4L205.4,184.4
						L205.4,184.4z"/>
					<path fill="#2B3990" d="M240.8,183.3v-63h42.7v12h-26.9v11h24.8v12h-24.8v15.9h26.9v12H240.8z"/>
					<path fill="#2B3990" d="M346.9,179.7c-2.8,1.1-6.4,2.3-10.8,3.3c-4.4,1.1-8.8,1.6-13.1,1.6c-9.9,0-17.8-2.9-23.7-8.6
						c-5.9-5.7-8.8-13.8-8.8-24.3c0-10.5,2.9-17.8,8.8-23.7c5.9-6,13.9-9,24.2-9c10.3,0,9.6,0.5,12.8,1.5c3.3,1,6.7,2.4,10.3,4.1
						v14.8h-1.4c-0.8-0.6-1.9-1.4-3.3-2.5c-1.4-1.1-2.8-2-4.2-2.8c-1.6-0.9-3.4-1.7-5.5-2.3c-2.1-0.6-4.3-0.9-6.6-0.9
						c-2.3,0-5.2,0.4-7.4,1.3c-2.3,0.8-4.2,2.1-6,3.9c-1.7,1.7-3,3.8-3.9,6.5s-1.4,5.6-1.4,9.1c0,7.4,1.9,12.8,5.6,16.3
						c3.7,3.5,8.8,5.3,15.2,5.3c6.4,0,1.3,0,2,0c0.8,0,1.4-0.1,2-0.1v-12.3h-12.2v-11.8H347v31l0,0L346.9,179.7z"/>
					<path fill="#2B3990" d="M384.3,184.6c-8.5,0-15-2.1-19.6-6.1s-6.8-10.1-6.8-18v-40.3h15.9v39.4c0,4.4,0.8,7.6,2.5,9.8
						c1.6,2.1,4.3,3.2,8.1,3.2c3.8,0,6.3-1,8-3.1c1.7-2.1,2.6-5.4,2.6-9.9v-39.4h15.9v40.2c0,7.8-2.2,13.7-6.6,17.9
						c-4.4,4.1-11,6.3-19.7,6.3l0,0L384.3,184.6z"/>
					<path fill="#2B3990" d="M481.2,183.3h-19.3l-17.5-23.1h-5.7v23.1H423v-63h25.4c3.5,0,6.6,0.3,9.1,0.6c2.6,0.4,5,1.3,7.2,2.8
						c2.3,1.4,4.1,3.3,5.4,5.5c1.3,2.2,2,5,2,8.5c0,3.4-1.1,8.8-3.3,11.8c-2.2,3-5.1,5.4-8.7,7.2l21.2,26.8l0,0L481.2,183.3z
						 M455.7,139.5c0-1.6-0.3-2.9-0.9-4.1c-0.6-1.1-1.6-2-3-2.6c-1-0.4-2.1-0.7-3.3-0.8c-1.3-0.1-2.8-0.2-4.5-0.2h-5.3v17h4.5
						c2.2,0,4.1-0.1,5.6-0.4c1.6-0.3,2.8-0.8,3.9-1.7c1-0.8,1.8-1.8,2.3-2.8C455.5,142.8,455.8,141.3,455.7,139.5L455.7,139.5
						L455.7,139.5z"/>
					<path fill="#2B3990" d="M543.3,151.8c0,10.2-2.8,18.2-8.1,24.1c-5.5,5.8-12.9,8.8-22.4,8.8s-17-2.9-22.4-8.9
						c-5.4-5.9-8.1-13.9-8.1-23.9s2.7-18.2,8.1-24.1c5.4-5.9,12.9-8.8,22.4-8.8s17,2.9,22.4,8.8
						C540.6,133.5,543.3,141.6,543.3,151.8L543.3,151.8L543.3,151.8z M527,151.7c0-3.8-0.4-7-1.2-9.6c-0.8-2.6-1.8-4.8-3.1-6.5
						c-1.4-1.7-2.9-2.9-4.6-3.7c-1.7-0.8-3.5-1.1-5.3-1.1c-1.8,0-3.7,0.4-5.3,1.1s-3.1,1.9-4.6,3.7c-1.3,1.6-2.4,3.8-3.1,6.5
						c-0.8,2.7-1.2,6-1.2,9.7s0.4,7.1,1.1,9.6c0.8,2.6,1.8,4.7,3.1,6.4c1.4,1.8,2.9,3,4.6,3.8c1.7,0.8,3.5,1.1,5.3,1.1
						s3.7-0.4,5.4-1.2c1.8-0.8,3.3-2.1,4.5-3.8c1.4-1.8,2.4-3.9,3.1-6.4C526.6,158.9,527,155.7,527,151.7L527,151.7L527,151.7z"/>
					<path fill="#2B3990" d="M572.2,184.4c-4.8,0-9.1-0.4-12.7-1.4s-7.1-2.1-10.2-3.4v-15h1.4c3.1,2.7,6.6,4.8,10.5,6.2
						s7.5,2.1,11.1,2.1c3.6,0,2.1-0.1,3.6-0.3c1.5-0.2,2.7-0.5,3.6-0.9c1.1-0.5,2-1.1,2.8-2c0.8-0.9,1.1-2,1.1-3.4
						c0-1.4-0.6-2.9-1.9-3.8c-1.3-1-2.8-1.7-4.4-2.1c-2.1-0.6-4.4-1.1-6.9-1.6s-4.7-1.1-6.8-1.9c-4.9-1.7-8.4-4-10.5-7
						c-2.1-2.9-3.2-6.6-3.2-10.9s2.5-10.7,7.5-14.3c5-3.6,11.2-5.5,18.7-5.5c7.5,0,7.5,0.4,11.2,1.1c3.7,0.8,7,1.8,10,3.1v14.4h-1.4
						c-2.3-2-5.2-3.7-8.6-5.1c-3.4-1.4-6.8-2.1-10.4-2.1s-2.6,0.1-3.7,0.3s-2.3,0.6-3.4,1.1c-1,0.4-1.8,1.1-2.6,2
						c-0.7,0.9-1.1,1.9-1.1,3c0,1.6,0.6,2.9,1.7,3.8c1.1,0.9,3.3,1.8,6.6,2.6c2.1,0.5,4.1,0.9,6.1,1.4c1.9,0.4,4.1,1.1,6.3,1.9
						c4.4,1.6,7.6,3.7,9.8,6.4c2.1,2.7,3.2,6.2,3.2,10.6c0,6.3-2.4,11.3-7.4,15.1C587.2,182.6,580.5,184.5,572.2,184.4L572.2,184.4
						L572.2,184.4z"/>
				</g>
				<g>
					<path fill="#2B3990" d="M205.4,99.6c-4.8,0-9.1-0.4-12.7-1.4c-3.6-0.9-7.1-2.1-10.2-3.4v-15h1.4c3.1,2.7,6.6,4.8,10.5,6.2
						c3.8,1.4,7.5,2.1,11.1,2.1s2.1-0.1,3.6-0.3c1.5-0.2,2.7-0.5,3.6-0.9c1.1-0.5,2-1.1,2.8-2c0.8-0.9,1.1-2,1.1-3.4
						s-0.6-2.9-1.9-3.8s-2.8-1.7-4.4-2.1c-2.1-0.6-4.4-1.1-6.9-1.6c-2.4-0.5-4.7-1.1-6.8-1.9c-4.9-1.7-8.4-4-10.5-7
						c-2.1-2.9-3.2-6.6-3.2-10.9s2.5-10.7,7.5-14.3c5-3.6,11.2-5.5,18.7-5.5s7.5,0.4,11.2,1.1c3.7,0.8,7,1.8,10,3.1V53h-1.4
						c-2.3-2-5.2-3.7-8.6-5.1c-3.4-1.4-6.8-2.1-10.4-2.1c-3.6,0-2.6,0.1-3.7,0.3c-1.1,0.2-2.3,0.6-3.4,1.1c-1,0.4-1.8,1.1-2.6,2
						c-0.7,0.9-1.1,1.9-1.1,3c0,1.6,0.6,2.9,1.7,3.8c1.1,0.9,3.3,1.8,6.6,2.6c2.1,0.5,4.1,0.9,6.1,1.4c1.9,0.4,4.1,1.1,6.3,1.9
						c4.4,1.6,7.6,3.7,9.8,6.4c2.1,2.7,3.2,6.2,3.2,10.6c0,6.3-2.4,11.3-7.4,15.1C220.4,97.8,213.8,99.7,205.4,99.6L205.4,99.6
						L205.4,99.6z"/>
					<path fill="#2B3990" d="M244.1,98.5l21.3-63h17.3l21.3,63h-16.3l-3.9-12.8h-19.8L260,98.5H244.1L244.1,98.5L244.1,98.5z
						 M280.2,74.2l-6.5-20.8l-6.5,20.8L280.2,74.2L280.2,74.2L280.2,74.2z"/>
					<path fill="#2B3990" d="M374.2,98.5H359l-24.3-43.9v43.9h-14.5V35.4h19.4l20.1,36.2V35.4h14.5L374.2,98.5L374.2,98.5
						L374.2,98.5z"/>
					<path fill="#2B3990" d="M424.1,99.7c-9.5,0-17-2.9-22.6-8.6c-5.6-5.7-8.3-13.8-8.3-24.1s2.8-18,8.4-23.9
						c5.6-6,13.1-8.9,22.6-8.9c9.5,0,4.8,0.1,6.8,0.4c2,0.3,3.9,0.7,5.8,1.2c1.4,0.4,3,1,4.7,1.8c1.7,0.8,3.1,1.4,4.1,1.9v15h-1.6
						c-0.8-0.7-1.7-1.5-2.9-2.4c-1.1-0.9-2.4-1.9-3.9-2.8s-3.1-1.7-4.8-2.3c-1.8-0.6-3.6-0.9-5.5-0.9c-1.9,0-4.4,0.4-6.3,1.1
						c-1.9,0.8-3.7,1.9-5.5,3.8c-1.6,1.6-2.9,3.8-3.9,6.5s-1.5,6-1.5,9.7c0,3.8,0.5,7.2,1.6,9.9c1.1,2.7,2.4,4.8,4.1,6.5
						c1.6,1.6,3.4,2.8,5.5,3.4c2,0.7,4,1.1,6,1.1s4.1-0.4,6-1.1c1.9-0.7,3.5-1.4,4.8-2.3c1.4-0.9,2.6-1.8,3.7-2.7
						c1.1-0.9,2-1.7,2.8-2.4h1.4v14.9c-1.1,0.6-2.5,1.1-4,1.8c-1.5,0.7-3.1,1.3-4.7,1.8c-2,0.6-3.8,1.1-5.6,1.4
						C429.5,99.6,427.2,99.8,424.1,99.7L424.1,99.7L424.1,99.7z"/>
					<path fill="#2B3990" d="M522.3,67c0,10.2-2.8,18.2-8.1,24.1c-5.5,5.8-12.9,8.8-22.4,8.8c-9.5,0-17-2.9-22.4-8.9
						c-5.4-5.9-8.1-13.9-8.1-23.9s2.7-18.2,8.1-24.1c5.4-5.9,12.9-8.8,22.4-8.8c9.5,0,17,2.9,22.4,8.8
						C519.6,48.8,522.3,56.8,522.3,67L522.3,67z M505.9,66.9c0-3.8-0.4-7-1.2-9.6c-0.8-2.6-1.8-4.8-3.1-6.5
						c-1.4-1.7-2.9-2.9-4.6-3.7c-1.7-0.8-3.5-1.1-5.3-1.1c-1.8,0-3.7,0.4-5.3,1.1c-1.6,0.7-3.1,1.9-4.6,3.7
						c-1.3,1.6-2.4,3.8-3.1,6.5c-0.8,2.7-1.2,6-1.2,9.7c0,3.8,0.4,7.1,1.1,9.6c0.8,2.6,1.8,4.7,3.1,6.4c1.4,1.8,2.9,3,4.6,3.8
						c1.7,0.8,3.5,1.1,5.3,1.1c1.8,0,3.7-0.4,5.4-1.2c1.8-0.8,3.3-2.1,4.5-3.8c1.4-1.8,2.4-3.9,3.1-6.4
						C505.5,74.1,505.9,70.9,505.9,66.9L505.9,66.9z"/>
					<path fill="#2B3990" d="M599.9,98.5h-19.3l-17.5-23.1h-5.7v23.1h-15.7V35.4H567c3.5,0,6.6,0.3,9.1,0.6c2.6,0.4,5,1.3,7.2,2.8
						c2.3,1.4,4.1,3.3,5.4,5.5c1.3,2.2,2,5,2,8.5s-1.1,8.8-3.3,11.8s-5.1,5.4-8.7,7.2L600,98.6l0,0L599.9,98.5z M574.4,54.7
						c0-1.6-0.3-2.9-0.9-4.1c-0.6-1.1-1.6-2-3-2.6c-1-0.4-2.1-0.7-3.3-0.8c-1.3-0.1-2.8-0.2-4.5-0.2h-5.3v17h4.5
						c2.2,0,4.1-0.1,5.6-0.4s2.8-0.8,3.9-1.7c1-0.8,1.8-1.8,2.3-2.8C574.2,58,574.5,56.5,574.4,54.7L574.4,54.7L574.4,54.7z"/>
				</g>
			</g>
		</g>
	</g>
</g>
</svg>
