<?xml version="1.0" encoding="utf-8"?>
<!-- Generator: Adobe Illustrator 18.1.1, SVG Export Plug-In . SVG Version: 6.00 Build 0)  -->
<svg version="1.1" id="Layer_1" xmlns="http://www.w3.org/2000/svg" xmlns:xlink="http://www.w3.org/1999/xlink" x="0px" y="0px"
	 viewBox="0 0 631 194" enable-background="new 0 0 631 194" xml:space="preserve">
<g>
	<path fill="#2B3990" d="M289.1,89.9c8.1-3,15.8-2.1,23.5-1c3.6,0.5,7.2,1.3,10.9,1.5c11.1,0.6,18.3-5.5,20.6-18
		c-1.6,1.4-2.6,2-3.2,2.8c-4,5.9-9.4,8.5-16.6,8.1c-6.4-0.3-12.8-0.1-19.2-0.1c-0.1-0.6-0.3-1.2-0.4-1.7
		c10.3-13.8,20.6-27.5,31.6-42.3c-5.7,0-10.3,0-14.8,0c-7.8,0-15.7,0.1-23.5,0c-2.9-0.1-4.2,0.9-4.7,3.8c-0.5,3-1.4,6-1.6,9.8
		c6.6-9.8,16.2-8.4,26.3-8.2c-10.8,14.2-21.2,27.9-31.7,41.6c-12.6-12.4-10.5-37.5,4.1-51.4c15.5-14.8,41.1-13.9,55.7,1.8
		c14.8,16.1,13.6,41.8-2.6,56C327.4,106.5,302.1,105.5,289.1,89.9z"/>
	<path fill="#2B3990" d="M284.6,130.5c-0.2,3.2-0.5,6-0.6,8.8c-0.1,4.3,0.1,8.7-0.1,13c-0.5,13.6-8.4,19.7-21.8,16.9
		c-6.3-1.3-10.4-5.4-11-11.9c-0.5-5.6-0.3-11.3-0.4-17c-0.1-3.1-0.4-6.3-0.6-9.7c2.8,0,6,0,8.4,0c0,8.1-0.2,16.3,0.1,24.5
		c0.2,6.8,3.1,9.4,9.6,9.3c5.7-0.1,8.2-3,8.3-9.5c0.1-8.1,0-16.1,0-24.4C278.8,130.5,281.8,130.5,284.6,130.5z"/>
	<path fill="#2B3990" d="M294.8,130.3c4.4,0,9.2-0.1,14,0c6.5,0.2,11.6,3.5,12.5,7.9c1.2,5.5-0.8,8.5-7.7,12.2
		c-0.4,0.2-0.7,0.6-1.5,1.3c4.8,5.3,9.5,10.6,14.4,16.1c-5.4,1.3-9.8,0.3-13.4-4c-3.1-3.7-6.2-7.3-10.6-10.6
		c0.3,4.9,0.5,9.8,0.8,14.9c-2.6,0-5.8,0-8.4,0C294.8,155.6,294.8,143.3,294.8,130.3z M302.8,148.5c7.9-0.2,11.1-2.6,10.7-7.8
		c-0.3-4.7-4.2-6.9-10.7-5.7C302.8,139.3,302.8,143.7,302.8,148.5z"/>
	<path fill="#2B3990" d="M390.7,130.5c2.5,0,5.6,0,8.6,0c-0.4,5-0.7,10-1.1,15.5c6.1,0,11.7,0,17.5,0c0-5,0-10.2,0-15.5
		c2.5,0,5.6,0,8.3,0c0,12.6,0,25.1,0,37.7c-2.7,0-5.9,0-8.3,0c0-5.6,0-11,0-16.7c-5.4,0-10.9,0-16.5,0c0,5.6,0,11,0,16.6
		c-2.4,0-5.5,0-8.3,0C390.7,155.6,390.7,143.1,390.7,130.5z"/>
	<path fill="#2B3990" d="M207,168.3c8-11.4,15.4-21.9,23.7-33.9c-7.5,0.7-13.7,1.3-19.8,1.8c0.3-5.3,1.1-6,6.7-6c8,0,16,0,25.1,0
		c-7.8,11.3-15.2,22-22.5,32.6c0.2,0.5,0.3,1,0.5,1.5c7.4-0.9,14.7-1.7,21.8-2.6c-1.8,6.5-1.8,6.5-9.1,6.5
		C224.9,168.3,216.5,168.3,207,168.3z"/>
	<path fill="#2B3990" d="M381.9,161.5c1.4,4.8-0.4,6.7-5,7.6c-12,2.2-23.2-2.9-26.4-12.6c-4.2-12.6,4.4-25.6,18.1-27
		c4.4-0.4,8.8-0.1,13.4-0.1c0,3.3,0,5.3,0,7.2c-11.6-3.3-17.8-2.3-21.8,3.6c-4.1,6.1-3.7,14.3,0.8,19.5
		C365.8,165.2,372,165.8,381.9,161.5z"/>
	<path fill="#2B3990" d="M341.6,168.1c-2.7,0-5.7,0-8.5,0c0-12.6,0-25,0-37.7c2.7,0,5.7,0,8.5,0C341.6,143,341.6,155.5,341.6,168.1z
		"/>
</g>
</svg>
